<svg xmlns="http://www.w3.org/2000/svg" xmlns:xlink="http://www.w3.org/1999/xlink" width="238" zoomAndPan="magnify" viewBox="0 0 178.5 44.249999" height="59" preserveAspectRatio="xMidYMid meet" version="1.0"><defs><g/><clipPath id="914d43227d"><path d="M 27.347656 11.433594 L 48.070312 11.433594 L 48.070312 32.15625 L 27.347656 32.15625 Z M 27.347656 11.433594 " clip-rule="nonzero"/></clipPath></defs><g clip-path="url(#914d43227d)"><path fill="#ffffff" d="M 25.277344 9.363281 L 50.144531 9.363281 L 50.144531 34.230469 L 25.277344 34.230469 Z M 25.277344 9.363281 " fill-opacity="1" fill-rule="nonzero"/><path fill="#ffffff" d="M 25.277344 9.363281 L 50.144531 9.363281 L 50.144531 34.230469 L 25.277344 34.230469 Z M 25.277344 9.363281 " fill-opacity="1" fill-rule="nonzero"/><path fill="#ffffff" d="M 25.277344 9.363281 L 50.144531 9.363281 L 50.144531 34.230469 L 25.277344 34.230469 Z M 25.277344 9.363281 " fill-opacity="1" fill-rule="nonzero"/><path fill="#000000" d="M 24.582031 11.433594 L 50.832031 11.433594 L 50.832031 32.15625 L 24.582031 32.15625 L 24.582031 11.433594 " fill-opacity="1" fill-rule="nonzero"/></g><path fill="#008037" d="M 35.195312 26.007812 L 33.0625 26.007812 L 33.0625 19.863281 L 31.136719 19.863281 L 31.136719 18.121094 L 37.113281 18.121094 L 37.113281 19.863281 L 35.195312 19.863281 Z M 35.195312 26.007812 " fill-opacity="1" fill-rule="nonzero"/><path fill="#ffffff" d="M 41.753906 19.753906 C 41.246094 19.753906 40.851562 19.964844 40.566406 20.378906 C 40.28125 20.792969 40.140625 21.367188 40.140625 22.097656 C 40.140625 23.617188 40.71875 24.375 41.871094 24.375 C 42.222656 24.375 42.558594 24.328125 42.886719 24.230469 C 43.214844 24.132812 43.542969 24.015625 43.875 23.878906 L 43.875 25.679688 C 43.214844 25.972656 42.472656 26.117188 41.640625 26.117188 C 40.449219 26.117188 39.539062 25.773438 38.902344 25.082031 C 38.265625 24.390625 37.949219 23.390625 37.949219 22.085938 C 37.949219 21.269531 38.105469 20.550781 38.410156 19.933594 C 38.71875 19.316406 39.160156 18.839844 39.738281 18.507812 C 40.316406 18.175781 40.996094 18.007812 41.773438 18.007812 C 42.628906 18.007812 43.441406 18.191406 44.21875 18.5625 L 43.566406 20.242188 C 43.273438 20.105469 42.984375 19.988281 42.691406 19.894531 C 42.402344 19.800781 42.089844 19.753906 41.753906 19.753906 Z M 41.753906 19.753906 " fill-opacity="1" fill-rule="nonzero"/><g fill="#000000" fill-opacity="1"><g transform="translate(52.749448, 29.303883)"><g><path d="M 3.84375 0 L 3.171875 0 L 3.171875 -8.921875 L 0.0625 -8.921875 L 0.0625 -9.546875 L 6.9375 -9.546875 L 6.9375 -8.921875 L 3.84375 -8.921875 Z M 3.84375 0 "/></g></g></g><g fill="#000000" fill-opacity="1"><g transform="translate(59.752304, 29.303883)"><g><path d="M 6.140625 0 L 6.140625 -4.609375 C 6.140625 -5.316406 5.988281 -5.832031 5.6875 -6.15625 C 5.382812 -6.476562 4.921875 -6.640625 4.296875 -6.640625 C 3.441406 -6.640625 2.816406 -6.425781 2.421875 -6 C 2.023438 -5.570312 1.828125 -4.878906 1.828125 -3.921875 L 1.828125 0 L 1.1875 0 L 1.1875 -10.15625 L 1.828125 -10.15625 L 1.828125 -6.921875 L 1.796875 -6.015625 L 1.84375 -6.015625 C 2.113281 -6.441406 2.453125 -6.75 2.859375 -6.9375 C 3.265625 -7.132812 3.765625 -7.234375 4.359375 -7.234375 C 5.972656 -7.234375 6.78125 -6.367188 6.78125 -4.640625 L 6.78125 0 Z M 6.140625 0 "/></g></g></g><g fill="#000000" fill-opacity="1"><g transform="translate(67.636225, 29.303883)"><g><path d="M 5.5 0 L 5.328125 -1.125 L 5.28125 -1.125 C 4.925781 -0.664062 4.5625 -0.34375 4.1875 -0.15625 C 3.8125 0.03125 3.363281 0.125 2.84375 0.125 C 2.144531 0.125 1.601562 -0.0507812 1.21875 -0.40625 C 0.832031 -0.757812 0.640625 -1.253906 0.640625 -1.890625 C 0.640625 -2.578125 0.925781 -3.113281 1.5 -3.5 C 2.082031 -3.882812 2.921875 -4.085938 4.015625 -4.109375 L 5.359375 -4.140625 L 5.359375 -4.625 C 5.359375 -5.289062 5.21875 -5.796875 4.9375 -6.140625 C 4.664062 -6.484375 4.226562 -6.65625 3.625 -6.65625 C 2.96875 -6.65625 2.285156 -6.472656 1.578125 -6.109375 L 1.34375 -6.671875 C 2.125 -7.035156 2.894531 -7.21875 3.65625 -7.21875 C 4.425781 -7.21875 5.003906 -7.015625 5.390625 -6.609375 C 5.773438 -6.210938 5.96875 -5.582031 5.96875 -4.71875 L 5.96875 0 Z M 2.890625 -0.453125 C 3.640625 -0.453125 4.234375 -0.664062 4.671875 -1.09375 C 5.109375 -1.53125 5.328125 -2.132812 5.328125 -2.90625 L 5.328125 -3.609375 L 4.09375 -3.5625 C 3.09375 -3.507812 2.378906 -3.351562 1.953125 -3.09375 C 1.535156 -2.832031 1.328125 -2.421875 1.328125 -1.859375 C 1.328125 -1.410156 1.460938 -1.0625 1.734375 -0.8125 C 2.003906 -0.570312 2.390625 -0.453125 2.890625 -0.453125 Z M 2.890625 -0.453125 "/></g></g></g><g fill="#000000" fill-opacity="1"><g transform="translate(74.717399, 29.303883)"><g><path d="M 6.140625 0 L 6.140625 -4.609375 C 6.140625 -5.316406 5.988281 -5.832031 5.6875 -6.15625 C 5.382812 -6.476562 4.921875 -6.640625 4.296875 -6.640625 C 3.441406 -6.640625 2.816406 -6.425781 2.421875 -6 C 2.023438 -5.570312 1.828125 -4.878906 1.828125 -3.921875 L 1.828125 0 L 1.1875 0 L 1.1875 -7.09375 L 1.734375 -7.09375 L 1.859375 -6.125 L 1.90625 -6.125 C 2.363281 -6.863281 3.179688 -7.234375 4.359375 -7.234375 C 5.972656 -7.234375 6.78125 -6.367188 6.78125 -4.640625 L 6.78125 0 Z M 6.140625 0 "/></g></g></g><g fill="#000000" fill-opacity="1"><g transform="translate(82.60132, 29.303883)"><g><path d="M 1.828125 -3.109375 L 5.453125 -7.09375 L 6.234375 -7.09375 L 3.4375 -4.0625 L 6.46875 0 L 5.6875 0 L 3 -3.578125 L 1.828125 -2.53125 L 1.828125 0 L 1.1875 0 L 1.1875 -10.15625 L 1.828125 -10.15625 L 1.828125 -5.0625 L 1.796875 -3.109375 Z M 1.828125 -3.109375 "/></g></g></g><g fill="#000000" fill-opacity="1"><g transform="translate(89.06901, 29.303883)"><g><path d="M 5.59375 -1.84375 C 5.59375 -1.207031 5.347656 -0.71875 4.859375 -0.375 C 4.378906 -0.0390625 3.695312 0.125 2.8125 0.125 C 1.863281 0.125 1.109375 -0.0195312 0.546875 -0.3125 L 0.546875 -1 C 1.265625 -0.644531 2.019531 -0.46875 2.8125 -0.46875 C 3.507812 -0.46875 4.039062 -0.582031 4.40625 -0.8125 C 4.769531 -1.050781 4.953125 -1.363281 4.953125 -1.75 C 4.953125 -2.101562 4.804688 -2.398438 4.515625 -2.640625 C 4.222656 -2.890625 3.75 -3.132812 3.09375 -3.375 C 2.382812 -3.625 1.882812 -3.84375 1.59375 -4.03125 C 1.300781 -4.21875 1.082031 -4.425781 0.9375 -4.65625 C 0.789062 -4.894531 0.71875 -5.179688 0.71875 -5.515625 C 0.71875 -6.046875 0.941406 -6.460938 1.390625 -6.765625 C 1.835938 -7.078125 2.460938 -7.234375 3.265625 -7.234375 C 4.035156 -7.234375 4.765625 -7.09375 5.453125 -6.8125 L 5.203125 -6.21875 C 4.503906 -6.5 3.859375 -6.640625 3.265625 -6.640625 C 2.679688 -6.640625 2.21875 -6.546875 1.875 -6.359375 C 1.539062 -6.171875 1.375 -5.90625 1.375 -5.5625 C 1.375 -5.195312 1.503906 -4.898438 1.765625 -4.671875 C 2.035156 -4.453125 2.550781 -4.207031 3.3125 -3.9375 C 3.957031 -3.695312 4.425781 -3.484375 4.71875 -3.296875 C 5.007812 -3.117188 5.226562 -2.910156 5.375 -2.671875 C 5.519531 -2.441406 5.59375 -2.164062 5.59375 -1.84375 Z M 5.59375 -1.84375 "/></g></g></g><g fill="#008037" fill-opacity="1"><g transform="translate(97.927985, 29.333591)"><g><path d="M 5.546875 -9.28125 C 4.328125 -9.28125 3.363281 -8.890625 2.65625 -8.109375 C 1.957031 -7.328125 1.609375 -6.253906 1.609375 -4.890625 C 1.609375 -3.492188 1.9375 -2.410156 2.59375 -1.640625 C 3.257812 -0.878906 4.207031 -0.5 5.4375 -0.5 C 6.257812 -0.5 7.015625 -0.601562 7.703125 -0.8125 L 7.703125 -0.203125 C 7.054688 0.0234375 6.25 0.140625 5.28125 0.140625 C 3.90625 0.140625 2.820312 -0.300781 2.03125 -1.1875 C 1.25 -2.070312 0.859375 -3.3125 0.859375 -4.90625 C 0.859375 -5.894531 1.046875 -6.769531 1.421875 -7.53125 C 1.796875 -8.289062 2.335938 -8.875 3.046875 -9.28125 C 3.753906 -9.695312 4.570312 -9.90625 5.5 -9.90625 C 6.457031 -9.90625 7.3125 -9.722656 8.0625 -9.359375 L 7.796875 -8.75 C 7.078125 -9.101562 6.328125 -9.28125 5.546875 -9.28125 Z M 5.546875 -9.28125 "/></g></g></g><g fill="#008037" fill-opacity="1"><g transform="translate(106.415568, 29.333591)"><g><path d="M 7.21875 -3.640625 C 7.21875 -2.453125 6.929688 -1.523438 6.359375 -0.859375 C 5.785156 -0.191406 4.992188 0.140625 3.984375 0.140625 C 3.347656 0.140625 2.785156 -0.0078125 2.296875 -0.3125 C 1.804688 -0.625 1.429688 -1.066406 1.171875 -1.640625 C 0.921875 -2.222656 0.796875 -2.890625 0.796875 -3.640625 C 0.796875 -4.816406 1.082031 -5.734375 1.65625 -6.390625 C 2.226562 -7.054688 3.015625 -7.390625 4.015625 -7.390625 C 5.015625 -7.390625 5.796875 -7.054688 6.359375 -6.390625 C 6.929688 -5.722656 7.21875 -4.804688 7.21875 -3.640625 Z M 1.484375 -3.640625 C 1.484375 -2.640625 1.703125 -1.859375 2.140625 -1.296875 C 2.578125 -0.742188 3.195312 -0.46875 4 -0.46875 C 4.800781 -0.46875 5.421875 -0.742188 5.859375 -1.296875 C 6.296875 -1.859375 6.515625 -2.640625 6.515625 -3.640625 C 6.515625 -4.640625 6.289062 -5.414062 5.84375 -5.96875 C 5.40625 -6.519531 4.785156 -6.796875 3.984375 -6.796875 C 3.191406 -6.796875 2.578125 -6.519531 2.140625 -5.96875 C 1.703125 -5.414062 1.484375 -4.640625 1.484375 -3.640625 Z M 1.484375 -3.640625 "/></g></g></g><g fill="#008037" fill-opacity="1"><g transform="translate(114.422721, 29.333591)"><g><path d="M 10.28125 0 L 10.28125 -4.765625 C 10.28125 -5.472656 10.140625 -5.988281 9.859375 -6.3125 C 9.585938 -6.632812 9.164062 -6.796875 8.59375 -6.796875 C 7.851562 -6.796875 7.304688 -6.585938 6.953125 -6.171875 C 6.597656 -5.765625 6.421875 -5.125 6.421875 -4.25 L 6.421875 0 L 5.734375 0 L 5.734375 -4.953125 C 5.734375 -6.179688 5.175781 -6.796875 4.0625 -6.796875 C 3.300781 -6.796875 2.742188 -6.570312 2.390625 -6.125 C 2.046875 -5.6875 1.875 -4.976562 1.875 -4 L 1.875 0 L 1.21875 0 L 1.21875 -7.25 L 1.765625 -7.25 L 1.90625 -6.265625 L 1.9375 -6.265625 C 2.144531 -6.617188 2.429688 -6.894531 2.796875 -7.09375 C 3.160156 -7.289062 3.566406 -7.390625 4.015625 -7.390625 C 5.160156 -7.390625 5.894531 -6.960938 6.21875 -6.109375 L 6.25 -6.109375 C 6.488281 -6.523438 6.804688 -6.84375 7.203125 -7.0625 C 7.597656 -7.28125 8.050781 -7.390625 8.5625 -7.390625 C 9.351562 -7.390625 9.945312 -7.175781 10.34375 -6.75 C 10.738281 -6.332031 10.9375 -5.664062 10.9375 -4.75 L 10.9375 0 Z M 10.28125 0 "/></g></g></g><g fill="#008037" fill-opacity="1"><g transform="translate(126.486833, 29.333591)"><g><path d="M 4.3125 0.140625 C 3.195312 0.140625 2.382812 -0.28125 1.875 -1.125 L 1.828125 -1.125 L 1.84375 -0.5625 C 1.863281 -0.226562 1.875 0.128906 1.875 0.515625 L 1.875 3.28125 L 1.21875 3.28125 L 1.21875 -7.25 L 1.78125 -7.25 L 1.90625 -6.21875 L 1.9375 -6.21875 C 2.4375 -7 3.234375 -7.390625 4.328125 -7.390625 C 5.304688 -7.390625 6.050781 -7.066406 6.5625 -6.421875 C 7.082031 -5.785156 7.34375 -4.851562 7.34375 -3.625 C 7.34375 -2.425781 7.070312 -1.5 6.53125 -0.84375 C 5.988281 -0.1875 5.25 0.140625 4.3125 0.140625 Z M 4.3125 -0.453125 C 5.050781 -0.453125 5.625 -0.726562 6.03125 -1.28125 C 6.4375 -1.832031 6.640625 -2.601562 6.640625 -3.59375 C 6.640625 -5.726562 5.867188 -6.796875 4.328125 -6.796875 C 3.484375 -6.796875 2.863281 -6.5625 2.46875 -6.09375 C 2.070312 -5.632812 1.875 -4.878906 1.875 -3.828125 L 1.875 -3.609375 C 1.875 -2.472656 2.0625 -1.660156 2.4375 -1.171875 C 2.820312 -0.691406 3.445312 -0.453125 4.3125 -0.453125 Z M 4.3125 -0.453125 "/></g></g></g></svg>