<svg xmlns="http://www.w3.org/2000/svg" xmlns:xlink="http://www.w3.org/1999/xlink" width="500" zoomAndPan="magnify" viewBox="0 0 375 374.999991" height="500" preserveAspectRatio="xMidYMid meet" version="1.0"><defs><g/></defs><rect x="-37.5" width="450" fill="#ffffff" y="-37.499999" height="449.999989" fill-opacity="1"/><rect x="-37.5" width="450" fill="#ffffff" y="-37.499999" height="449.999989" fill-opacity="1"/><rect x="-37.5" width="450" fill="#ffffff" y="-37.499999" height="449.999989" fill-opacity="1"/><path fill="#000000" d="M -50.027344 0.00390625 L 424.972656 0.00390625 L 424.972656 374.996094 L -50.027344 374.996094 L -50.027344 0.00390625 " fill-opacity="1" fill-rule="nonzero"/><g fill="#008037" fill-opacity="1"><g transform="translate(63.566643, 263.762987)"><g><path d="M 78.40625 0 L 39.84375 0 L 39.84375 -111.21875 L 4.984375 -111.21875 L 4.984375 -142.75 L 113.171875 -142.75 L 113.171875 -111.21875 L 78.40625 -111.21875 Z M 78.40625 0 "/></g></g></g><g fill="#ffffff" fill-opacity="1"><g transform="translate(181.691628, 263.762987)"><g><path d="M 78.984375 -113.171875 C 69.804688 -113.171875 62.644531 -109.410156 57.5 -101.890625 C 52.363281 -94.367188 49.796875 -84.003906 49.796875 -70.796875 C 49.796875 -43.316406 60.242188 -29.578125 81.140625 -29.578125 C 87.453125 -29.578125 93.566406 -30.457031 99.484375 -32.21875 C 105.410156 -33.976562 111.367188 -36.09375 117.359375 -38.5625 L 117.359375 -5.953125 C 105.453125 -0.679688 91.976562 1.953125 76.9375 1.953125 C 55.394531 1.953125 38.878906 -4.296875 27.390625 -16.796875 C 15.898438 -29.296875 10.15625 -47.359375 10.15625 -70.984375 C 10.15625 -85.765625 12.9375 -98.75 18.5 -109.9375 C 24.0625 -121.132812 32.066406 -129.742188 42.515625 -135.765625 C 52.960938 -141.785156 65.25 -144.796875 79.375 -144.796875 C 94.800781 -144.796875 109.546875 -141.445312 123.609375 -134.75 L 111.796875 -104.375 C 106.523438 -106.851562 101.253906 -108.9375 95.984375 -110.625 C 90.710938 -112.320312 85.046875 -113.171875 78.984375 -113.171875 Z M 78.984375 -113.171875 "/></g></g></g></svg>